HIERARCHY
ROOT Hips
{
 OFFSET 0.000000 0.000000 0.000000
 CHANNELS 6 Xposition Yposition Zposition Yrotation Xrotation Zrotation
 JOINT Chest
 {
  OFFSET 0.000000 14.374500 -0.011500
  CHANNELS 3 Yrotation Xrotation Zrotation
  JOINT Chest2
  {
   OFFSET 0.000000 9.203400 0.023400
   CHANNELS 3 Yrotation Xrotation Zrotation
   JOINT Chest3
   {
    OFFSET 0.000000 9.162700 0.000000
    CHANNELS 3 Yrotation Xrotation Zrotation
    JOINT Chest4
    {
     OFFSET 0.000000 9.153300 0.000000
     CHANNELS 3 Yrotation Xrotation Zrotation
     JOINT Neck
     {
      OFFSET 0.000000 13.353600 0.000000
      CHANNELS 3 Yrotation Xrotation Zrotation
      JOINT Head
      {
       OFFSET 0.000000 8.573800 0.049400
       CHANNELS 3 Yrotation Xrotation Zrotation
       End Site
       {
        OFFSET 0.000000 16.219200 0.026100
       }
      }
     }
     JOINT RightCollar
     {
      OFFSET -2.497100 8.876100 0.000000
      CHANNELS 3 Yrotation Xrotation Zrotation
      JOINT RightShoulder
      {
       OFFSET -12.289200 0.000000 0.000000
       CHANNELS 3 Yrotation Xrotation Zrotation
       JOINT RightElbow
       {
        OFFSET 0.000000 -28.194900 0.000000
        CHANNELS 3 Yrotation Xrotation Zrotation
        JOINT RightWrist
        {
         OFFSET 0.000000 -23.009700 0.007900
         CHANNELS 3 Yrotation Xrotation Zrotation
         End Site
         {
          OFFSET 0.000000 -17.151500 0.000000
         }
        }
       }
      }
     }
     JOINT LeftCollar
     {
      OFFSET 2.497100 8.876100 0.000000
      CHANNELS 3 Yrotation Xrotation Zrotation
      JOINT LeftShoulder
      {
       OFFSET 12.289200 0.000000 0.000000
       CHANNELS 3 Yrotation Xrotation Zrotation
       JOINT LeftElbow
       {
        OFFSET 0.000000 -28.194900 0.000000
        CHANNELS 3 Yrotation Xrotation Zrotation
        JOINT LeftWrist
        {
         OFFSET 0.000000 -23.009700 0.007900
         CHANNELS 3 Yrotation Xrotation Zrotation
         End Site
         {
          OFFSET 0.000000 -17.151500 0.000000
         }
        }
       }
      }
     }
    }
   }
  }
 }
 JOINT RightHip
 {
  OFFSET -11.777600 0.056700 0.005700
  CHANNELS 3 Yrotation Xrotation Zrotation
  JOINT RightKnee
  {
   OFFSET 0.000000 -39.966000 -0.004200
   CHANNELS 3 Yrotation Xrotation Zrotation
   JOINT RightAnkle
   {
    OFFSET 0.000000 -41.981900 0.027400
    CHANNELS 3 Yrotation Xrotation Zrotation
    JOINT RightToe
    {
     OFFSET 0.000000 -9.910600 16.950100
     CHANNELS 3 Yrotation Xrotation Zrotation
     End Site
     {
      OFFSET 0.000000 -1.461000 6.191600
     }
    }
   }
  }
 }
 JOINT LeftHip
 {
  OFFSET 11.777600 0.056700 0.005700
  CHANNELS 3 Yrotation Xrotation Zrotation
  JOINT LeftKnee
  {
   OFFSET 0.000000 -39.966000 -0.004200
   CHANNELS 3 Yrotation Xrotation Zrotation
   JOINT LeftAnkle
   {
    OFFSET 0.000000 -41.981900 0.027400
    CHANNELS 3 Yrotation Xrotation Zrotation
    JOINT LeftToe
    {
     OFFSET 0.000000 -9.910600 16.950100
     CHANNELS 3 Yrotation Xrotation Zrotation
     End Site
     {
      OFFSET 0.000000 -1.461000 6.191600
     }
    }
   }
  }
 }
}
MOTION
Frames: 6
Frame Time: 0.008333
3.852976 130.474719 27.155799 172.437525 -50.971483 -2.402821 3.881528 26.454699 3.017884 0.542016 4.521907 0.371882 0.875470 7.171202 0.611241 2.971825 21.650847 2.264005 -0.397367 17.800843 0.138929 -0.459590 -6.944504 0.261770 -2.665246 -1.429834 -1.990953 -35.911965 -16.737867 -3.885011 -92.000340 -39.553784 52.820882 -0.142428 -26.906795 -53.863548 -5.256677 -5.922619 2.341530 46.247534 -20.943531 5.474315 79.076118 -22.362292 -44.976627 -12.096945 -51.828531 61.985803 8.125136 -27.520649 2.221728 -69.078440 86.273608 -70.078816 1.443056 -24.987541 7.783986 -0.005105 -0.012190 -0.002984 0.217035 -25.059303 -4.819300 147.736055 67.532747 160.018942 2.275122 18.546619 -0.376287 0.000376 -0.021360 0.000220
3.852082 130.476296 27.148035 172.449003 -50.943587 -2.399399 3.898304 26.454213 3.030209 0.543662 4.520495 0.373581 0.878137 7.169041 0.613993 2.957261 21.648099 2.261811 -0.397159 17.872223 0.173797 -0.497526 -6.903539 0.290951 -2.462593 -1.510150 -1.945765 -35.748361 -16.553595 -3.057851 -91.631878 -38.432429 51.750040 -0.506028 -26.990725 -53.668379 -5.367576 -6.003812 2.268345 45.744246 -20.543179 4.962708 78.213460 -22.372316 -43.326189 -11.775368 -51.749494 61.549868 8.129788 -27.538548 2.211767 -68.756289 86.252063 -69.758881 1.445359 -24.991790 7.774104 -0.007268 -0.022060 -0.004249 0.216344 -25.075105 -4.843297 147.766745 67.581374 160.038483 2.323384 18.589786 -0.367575 -0.000409 -0.042122 -0.000239
3.850212 130.477960 27.135644 172.488401 -50.896643 -2.413523 3.878243 26.424678 3.023039 0.559086 4.531828 0.384964 0.879357 7.156648 0.617039 2.967970 21.654174 2.266532 -0.417126 17.943194 0.219953 -0.535693 -6.841109 0.320911 -2.301036 -1.607678 -1.921969 -35.557156 -16.382782 -2.265857 -91.211195 -37.352215 50.628447 -0.841897 -27.070843 -53.478881 -5.471142 -6.056606 2.226838 45.029982 -20.150605 4.442537 77.390413 -22.544279 -41.635151 -11.385032 -51.702829 60.993118 8.116281 -27.574485 2.189917 -68.473755 86.239193 -69.478026 1.450123 -24.996011 7.757654 -0.004503 -0.028996 -0.002632 0.199290 -25.105676 -4.876257 147.794810 67.615460 160.060313 2.364715 18.580709 -0.360431 0.010624 -0.055211 0.006208
3.845299 130.469825 27.126448 172.526137 -50.780712 -2.418640 3.849882 26.329168 3.002664 0.574792 4.540995 0.398930 0.878789 7.134896 0.620923 3.019189 21.617716 2.313707 -0.491746 18.037949 0.230644 -0.569584 -6.743673 0.354208 -2.183793 -1.667646 -1.942860 -35.321874 -16.237639 -1.516233 -90.773973 -36.317425 49.456536 -1.154891 -27.142361 -53.295028 -5.581636 -6.043105 2.168331 44.188546 -19.806042 3.907725 76.605047 -22.786838 -39.946883 -10.937274 -51.688698 60.343003 8.109453 -27.684553 2.150509 -68.121243 86.222666 -69.137430 1.450561 -25.002319 7.754665 -0.004532 -0.015698 -0.002649 0.182717 -25.185215 -4.950893 147.709359 67.631562 159.970869 2.430760 18.497655 -0.322449 0.002122 -0.026541 0.001240
3.844047 130.464948 27.111166 172.537963 -50.663912 -2.417924 3.863489 26.254839 3.019587 0.566832 4.518309 0.394278 0.884030 7.109381 0.629261 3.022230 21.577824 2.331837 -0.518152 18.135348 0.253684 -0.602891 -6.636025 0.384689 -2.022614 -1.715564 -1.957459 -35.025101 -16.130646 -0.807507 -90.336443 -35.331495 48.229568 -1.460073 -27.216742 -53.100418 -5.625757 -6.003044 2.133199 43.306708 -19.522283 3.363604 75.857012 -23.003074 -38.322221 -10.451191 -51.687773 59.637916 8.115556 -27.787413 2.139028 -67.707927 86.204869 -68.745440 1.454841 -24.997913 7.754535 -0.012334 -0.024062 -0.007210 0.172370 -25.275354 -4.994774 147.645140 67.642283 159.904049 2.461715 18.495396 -0.315059 -0.009781 -0.030604 -0.005717
3.845176 130.463974 27.089449 172.593914 -50.549718 -2.460314 3.855584 26.187171 3.045054 0.542541 4.478619 0.380588 0.899180 7.082686 0.645443 3.023105 21.525433 2.350022 -0.541542 18.240297 0.274973 -0.632748 -6.519930 0.412659 -1.854864 -1.735797 -1.972332 -34.650085 -16.074494 -0.137557 -89.919180 -34.398247 46.947780 -1.761301 -27.295746 -52.889155 -5.713205 -5.994108 2.030587 42.483048 -19.301901 2.934593 75.127598 -23.107890 -36.819849 -9.961076 -51.679816 58.944614 8.132348 -27.883630 2.128946 -67.411944 86.177099 -68.428429 1.428609 -24.999850 7.767942 -0.003653 -0.012835 -0.002136 0.127847 -25.367875 -5.023270 147.574564 67.645010 159.826114 2.502485 18.467423 -0.305103 -0.009491 -0.022919 -0.005548
